<mxfile host="Electron" agent="Mozilla/5.0 (Windows NT 10.0; Win64; x64) AppleWebKit/537.36 (KHTML, like Gecko) draw.io/26.0.7 Chrome/128.0.6613.186 Electron/32.2.5 Safari/537.36" version="26.0.7">
  <diagram name="Page-1" id="A_AtASbzUhTWqcuBHgUt">
    <mxGraphModel dx="1036" dy="606" grid="1" gridSize="10" guides="1" tooltips="1" connect="1" arrows="1" fold="1" page="1" pageScale="1" pageWidth="850" pageHeight="1100" math="0" shadow="0">
      <root>
        <mxCell id="0" />
        <mxCell id="1" parent="0" />
        <mxCell id="8Uvv8rTyPBUZaO0NvZ4e-6" style="edgeStyle=orthogonalEdgeStyle;rounded=0;orthogonalLoop=1;jettySize=auto;html=1;entryX=0.5;entryY=0;entryDx=0;entryDy=0;" edge="1" parent="1" source="8Uvv8rTyPBUZaO0NvZ4e-1" target="8Uvv8rTyPBUZaO0NvZ4e-3">
          <mxGeometry relative="1" as="geometry" />
        </mxCell>
        <mxCell id="8Uvv8rTyPBUZaO0NvZ4e-1" value="Start" style="ellipse;whiteSpace=wrap;html=1;" vertex="1" parent="1">
          <mxGeometry x="365" y="40" width="120" height="80" as="geometry" />
        </mxCell>
        <mxCell id="8Uvv8rTyPBUZaO0NvZ4e-7" style="edgeStyle=orthogonalEdgeStyle;rounded=0;orthogonalLoop=1;jettySize=auto;html=1;entryX=0.5;entryY=0;entryDx=0;entryDy=0;" edge="1" parent="1" source="8Uvv8rTyPBUZaO0NvZ4e-3" target="8Uvv8rTyPBUZaO0NvZ4e-4">
          <mxGeometry relative="1" as="geometry" />
        </mxCell>
        <mxCell id="8Uvv8rTyPBUZaO0NvZ4e-3" value="Click Skip Button" style="shape=parallelogram;perimeter=parallelogramPerimeter;whiteSpace=wrap;html=1;fixedSize=1;" vertex="1" parent="1">
          <mxGeometry x="293" y="180" width="265" height="60" as="geometry" />
        </mxCell>
        <mxCell id="8Uvv8rTyPBUZaO0NvZ4e-8" style="edgeStyle=orthogonalEdgeStyle;rounded=0;orthogonalLoop=1;jettySize=auto;html=1;entryX=0.5;entryY=0;entryDx=0;entryDy=0;" edge="1" parent="1" source="8Uvv8rTyPBUZaO0NvZ4e-4" target="8Uvv8rTyPBUZaO0NvZ4e-5">
          <mxGeometry relative="1" as="geometry" />
        </mxCell>
        <mxCell id="8Uvv8rTyPBUZaO0NvZ4e-4" value="Set the current In Progress ticket to Pending,&amp;nbsp;&lt;div&gt;remove the assigned cashier,&amp;nbsp;&lt;div&gt;and move it to the end of the queue&lt;/div&gt;&lt;/div&gt;" style="rounded=0;whiteSpace=wrap;html=1;" vertex="1" parent="1">
          <mxGeometry x="247" y="300" width="356" height="80" as="geometry" />
        </mxCell>
        <mxCell id="8Uvv8rTyPBUZaO0NvZ4e-5" value="End" style="ellipse;whiteSpace=wrap;html=1;" vertex="1" parent="1">
          <mxGeometry x="364.5" y="440" width="120" height="80" as="geometry" />
        </mxCell>
      </root>
    </mxGraphModel>
  </diagram>
</mxfile>
